# Blender 4.1.1
# www.blender.org
mtllib 05a_Analyzer.mtl
o Cube
v 5.000000 0.200000 -1.000000
v 5.000000 -0.200000 -1.000000
v 5.000000 0.200000 1.000000
v 5.000000 -0.200000 1.000000
v -4.000000 0.200000 -1.000000
v -4.000000 -0.200000 -1.000000
v -4.000000 0.200000 1.000000
v -4.000000 -0.200000 1.000000
v -0.750000 0.200000 0.000000
v -0.735589 0.200000 0.146318
v -0.735589 0.200000 -0.146318
v -0.692909 0.200000 -0.287013
v -0.623602 0.200000 -0.416678
v -0.530330 0.200000 -0.530330
v -0.416678 0.200000 -0.623602
v -0.338879 0.200000 -0.665187
v -0.287013 0.200000 -0.692910
v 0.000000 0.200000 -0.750000
v 0.146318 0.200000 -0.735589
v 0.735589 0.200000 -0.146318
v 0.692910 0.200000 -0.287013
v 0.623602 0.200000 -0.416678
v 0.530330 0.200000 -0.530330
v 0.416678 0.200000 -0.623602
v 0.287013 0.200000 -0.692910
v -0.146318 0.200000 -0.735589
v -0.692909 0.200000 0.287013
v -0.530330 0.200000 0.530330
v -0.623602 0.200000 0.416678
v 0.000000 0.200000 0.750000
v -0.146318 0.200000 0.735589
v -0.287013 0.200000 0.692910
v -0.364812 0.200000 0.651325
v -0.416678 0.200000 0.623602
v 0.750000 0.200000 0.000000
v 0.692910 0.200000 0.287013
v 0.735589 0.200000 0.146318
v 0.287013 0.200000 0.692910
v 0.416678 0.200000 0.623602
v 0.530330 0.200000 0.530330
v 0.623602 0.200000 0.416678
v 0.146318 0.200000 0.735589
v -0.692909 -0.200000 -0.287013
v -0.623602 -0.200000 -0.416678
v -0.530330 -0.200000 -0.530330
v 0.000000 -0.200000 -0.750000
v -0.146318 -0.200000 -0.735589
v -0.416678 -0.200000 -0.623602
v -0.364812 -0.200000 -0.651325
v -0.287013 -0.200000 -0.692910
v 0.750000 -0.200000 0.000000
v 0.735589 -0.200000 -0.146318
v 0.692910 -0.200000 -0.287013
v 0.623602 -0.200000 -0.416678
v 0.530330 -0.200000 -0.530330
v 0.416678 -0.200000 -0.623602
v 0.287013 -0.200000 -0.692910
v 0.146318 -0.200000 -0.735589
v -0.750000 -0.200000 0.000000
v -0.735589 -0.200000 0.146318
v -0.735589 -0.200000 -0.146318
v -0.287013 -0.200000 0.692910
v -0.338879 -0.200000 0.665187
v -0.416678 -0.200000 0.623602
v -0.530330 -0.200000 0.530330
v -0.623602 -0.200000 0.416678
v -0.692909 -0.200000 0.287013
v 0.000000 -0.200000 0.750000
v 0.146318 -0.200000 0.735589
v 0.735589 -0.200000 0.146318
v 0.530330 -0.200000 0.530330
v 0.623602 -0.200000 0.416678
v 0.692910 -0.200000 0.287013
v 0.287013 -0.200000 0.692910
v 0.416678 -0.200000 0.623602
v -0.146318 -0.200000 0.735589
vn -0.0000 1.0000 -0.0000
vn -0.0000 -0.0000 1.0000
vn -1.0000 -0.0000 -0.0000
vn -0.0000 -1.0000 -0.0000
vn 1.0000 -0.0000 -0.0000
vn -0.0000 -0.0000 -1.0000
vn -0.0980 -0.0000 0.9952
vn -0.2903 -0.0000 0.9569
vn -0.4714 -0.0000 0.8819
vn -0.6344 -0.0000 0.7730
vn -0.7730 -0.0000 0.6344
vn -0.8819 -0.0000 0.4714
vn -0.9569 -0.0000 0.2903
vn -0.9952 -0.0000 0.0980
vn -0.9952 -0.0000 -0.0980
vn -0.9569 -0.0000 -0.2903
vn -0.8819 -0.0000 -0.4714
vn -0.7730 -0.0000 -0.6344
vn -0.6344 -0.0000 -0.7730
vn -0.4714 -0.0000 -0.8819
vn -0.2903 -0.0000 -0.9569
vn -0.0980 -0.0000 -0.9952
vn 0.0980 -0.0000 -0.9952
vn 0.2903 -0.0000 -0.9569
vn 0.4714 -0.0000 -0.8819
vn 0.6344 -0.0000 -0.7730
vn 0.7730 -0.0000 -0.6344
vn 0.8819 -0.0000 -0.4714
vn 0.9569 -0.0000 -0.2903
vn 0.9952 -0.0000 -0.0980
vn 0.9952 -0.0000 0.0980
vn 0.9569 -0.0000 0.2903
vn 0.8819 -0.0000 0.4714
vn 0.7730 -0.0000 0.6344
vn 0.6344 -0.0000 0.7730
vn 0.4714 -0.0000 0.8819
vn 0.2903 -0.0000 0.9569
vn 0.0980 -0.0000 0.9952
vt 0.775463 0.547050
vt 0.773302 0.541852
vt 0.875000 0.500000
vt 0.875000 0.750000
vt 0.774023 0.706416
vt 0.775463 0.702950
vt 0.778620 0.691291
vt 0.781211 0.677085
vt 0.783136 0.660877
vt 0.784322 0.643290
vt 0.784722 0.625000
vt 0.784322 0.606710
vt 0.783136 0.589123
vt 0.781211 0.572915
vt 0.778620 0.558709
vt 0.771861 0.711614
vt 0.625000 0.750000
vt 0.625000 0.500000
vt 0.771861 0.538386
vt 0.767953 0.533051
vt 0.763889 0.531250
vt 0.759825 0.533051
vt 0.755916 0.538386
vt 0.752314 0.547050
vt 0.749158 0.558709
vt 0.746567 0.572915
vt 0.744641 0.589123
vt 0.743456 0.606710
vt 0.743056 0.625000
vt 0.743456 0.643290
vt 0.744641 0.660877
vt 0.746567 0.677085
vt 0.749157 0.691291
vt 0.752314 0.702950
vt 0.755916 0.711614
vt 0.759825 0.716949
vt 0.763889 0.718750
vt 0.767953 0.716949
vt 0.375000 0.750000
vt 0.625000 1.000000
vt 0.375000 1.000000
vt 0.375000 0.000000
vt 0.625000 0.000000
vt 0.625000 0.250000
vt 0.375000 0.250000
vt 0.225977 0.543584
vt 0.125000 0.500000
vt 0.375000 0.500000
vt 0.125000 0.750000
vt 0.226698 0.708148
vt 0.228139 0.711614
vt 0.232047 0.716949
vt 0.236111 0.718750
vt 0.240175 0.716949
vt 0.244084 0.711614
vt 0.247685 0.702950
vt 0.250842 0.691291
vt 0.253433 0.677085
vt 0.255359 0.660877
vt 0.256544 0.643290
vt 0.256944 0.625000
vt 0.256544 0.606710
vt 0.255359 0.589123
vt 0.253433 0.572915
vt 0.250843 0.558709
vt 0.247685 0.547050
vt 0.244084 0.538386
vt 0.240176 0.533051
vt 0.236111 0.531250
vt 0.232047 0.533051
vt 0.228139 0.538386
vt 0.224537 0.547050
vt 0.221380 0.558709
vt 0.218789 0.572915
vt 0.216864 0.589123
vt 0.215678 0.606710
vt 0.215278 0.625000
vt 0.215678 0.643290
vt 0.216864 0.660877
vt 0.218789 0.677085
vt 0.221380 0.691291
vt 0.224537 0.702950
vt 0.968750 0.700000
vt 0.968750 0.800000
vt 1.000000 0.800000
vt 1.000000 0.700000
vt 0.937500 0.800000
vt 0.937500 0.700000
vt 0.906250 0.800000
vt 0.906250 0.700000
vt 0.875000 0.800000
vt 0.875000 0.700000
vt 0.843750 0.800000
vt 0.843750 0.700000
vt 0.812500 0.800000
vt 0.812500 0.700000
vt 0.781250 0.800000
vt 0.781250 0.700000
vt 0.750000 0.800000
vt 0.750000 0.700000
vt 0.718750 0.800000
vt 0.718750 0.700000
vt 0.687500 0.800000
vt 0.687500 0.700000
vt 0.656250 0.800000
vt 0.656250 0.700000
vt 0.625000 0.800000
vt 0.625000 0.700000
vt 0.593750 0.800000
vt 0.593750 0.700000
vt 0.562500 0.800000
vt 0.562500 0.700000
vt 0.531250 0.800000
vt 0.531250 0.700000
vt 0.500000 0.800000
vt 0.500000 0.700000
vt 0.468750 0.800000
vt 0.468750 0.700000
vt 0.437500 0.700000
vt 0.437500 0.800000
vt 0.406250 0.700000
vt 0.406250 0.800000
vt 0.418750 0.800000
vt 0.425000 0.700000
vt 0.375000 0.700000
vt 0.375000 0.800000
vt 0.343750 0.700000
vt 0.343750 0.800000
vt 0.312500 0.700000
vt 0.312500 0.800000
vt 0.281250 0.700000
vt 0.281250 0.800000
vt 0.250000 0.700000
vt 0.250000 0.800000
vt 0.218750 0.700000
vt 0.218750 0.800000
vt 0.187500 0.700000
vt 0.187500 0.800000
vt 0.156250 0.700000
vt 0.156250 0.800000
vt 0.125000 0.700000
vt 0.125000 0.800000
vt 0.093750 0.700000
vt 0.093750 0.800000
vt 0.062500 0.700000
vt 0.062500 0.800000
vt 0.075000 0.800000
vt 0.081250 0.700000
vt 0.031250 0.700000
vt 0.031250 0.800000
vt 0.000000 0.700000
vt 0.000000 0.800000
s 0
usemtl Material.001
f 15/1/1 16/2/1 5/3/1 7/4/1 33/5/1 34/6/1 28/7/1 29/8/1 27/9/1 10/10/1 9/11/1 11/12/1 12/13/1 13/14/1 14/15/1
f 32/16/1 33/5/1 7/4/1 3/17/1 1/18/1 5/3/1 16/2/1 17/19/1 26/20/1 18/21/1 19/22/1 25/23/1 24/24/1 23/25/1 22/26/1 21/27/1 20/28/1 35/29/1 37/30/1 36/31/1 41/32/1 40/33/1 39/34/1 38/35/1 42/36/1 30/37/1 31/38/1
f 4/39/2 3/17/2 7/40/2 8/41/2
f 8/42/3 7/43/3 5/44/3 6/45/3
f 49/46/4 6/47/4 2/48/4 4/39/4 8/49/4 63/50/4 62/51/4 76/52/4 68/53/4 69/54/4 74/55/4 75/56/4 71/57/4 72/58/4 73/59/4 70/60/4 51/61/4 52/62/4 53/63/4 54/64/4 55/65/4 56/66/4 57/67/4 58/68/4 46/69/4 47/70/4 50/71/4
f 63/50/4 8/49/4 6/47/4 49/46/4 48/72/4 45/73/4 44/74/4 43/75/4 61/76/4 59/77/4 60/78/4 67/79/4 66/80/4 65/81/4 64/82/4
f 2/48/5 1/18/5 3/17/5 4/39/5
f 6/45/6 5/44/6 1/18/6 2/48/6
f 58/83/7 19/84/7 18/85/7 46/86/7
f 25/87/8 19/84/8 58/83/8 57/88/8
f 24/89/9 25/87/9 57/88/9 56/90/9
f 23/91/10 24/89/10 56/90/10 55/92/10
f 22/93/11 23/91/11 55/92/11 54/94/11
f 21/95/12 22/93/12 54/94/12 53/96/12
f 20/97/13 21/95/13 53/96/13 52/98/13
f 35/99/14 20/97/14 52/98/14 51/100/14
f 37/101/15 35/99/15 51/100/15 70/102/15
f 36/103/16 37/101/16 70/102/16 73/104/16
f 41/105/17 36/103/17 73/104/17 72/106/17
f 40/107/18 41/105/18 72/106/18 71/108/18
f 39/109/19 40/107/19 71/108/19 75/110/19
f 38/111/20 39/109/20 75/110/20 74/112/20
f 42/113/21 38/111/21 74/112/21 69/114/21
f 30/115/22 42/113/22 69/114/22 68/116/22
f 31/117/23 30/115/23 68/116/23 76/118/23
f 62/119/24 32/120/24 31/117/24 76/118/24
f 64/121/25 34/122/25 33/123/25 32/120/25 62/119/25 63/124/25
f 65/125/26 28/126/26 34/122/26 64/121/26
f 66/127/27 29/128/27 28/126/27 65/125/27
f 67/129/28 27/130/28 29/128/28 66/127/28
f 60/131/29 10/132/29 27/130/29 67/129/29
f 59/133/30 9/134/30 10/132/30 60/131/30
f 61/135/31 11/136/31 9/134/31 59/133/31
f 43/137/32 12/138/32 11/136/32 61/135/32
f 44/139/33 13/140/33 12/138/33 43/137/33
f 45/141/34 14/142/34 13/140/34 44/139/34
f 48/143/35 15/144/35 14/142/35 45/141/35
f 50/145/36 17/146/36 16/147/36 15/144/36 48/143/36 49/148/36
f 47/149/37 26/150/37 17/146/37 50/145/37
f 46/151/38 18/152/38 26/150/38 47/149/38
o Cube.001
v 5.000000 -0.180000 0.100000
v 5.000000 -0.080000 0.100000
v 5.000000 -0.180000 -0.100000
v 5.000000 -0.080000 -0.100000
v 5.600000 -0.180000 0.100000
v 5.600000 -0.080000 0.100000
v 5.600000 -0.180000 -0.100000
v 5.600000 -0.080000 -0.100000
vn -1.0000 -0.0000 -0.0000
vn -0.0000 -0.0000 -1.0000
vn 1.0000 -0.0000 -0.0000
vn -0.0000 -0.0000 1.0000
vn -0.0000 -1.0000 -0.0000
vn -0.0000 1.0000 -0.0000
vt 0.375000 0.000000
vt 0.625000 0.000000
vt 0.625000 0.250000
vt 0.375000 0.250000
vt 0.625000 0.500000
vt 0.375000 0.500000
vt 0.625000 0.750000
vt 0.375000 0.750000
vt 0.625000 1.000000
vt 0.375000 1.000000
vt 0.125000 0.500000
vt 0.125000 0.750000
vt 0.875000 0.500000
vt 0.875000 0.750000
s 0
usemtl Material
f 77/153/39 78/154/39 80/155/39 79/156/39
f 79/156/40 80/155/40 84/157/40 83/158/40
f 83/158/41 84/157/41 82/159/41 81/160/41
f 81/160/42 82/159/42 78/161/42 77/162/42
f 79/163/43 83/158/43 81/160/43 77/164/43
f 84/157/44 80/165/44 78/166/44 82/159/44
o Cube.002
v 5.000000 0.080000 0.100000
v 5.000000 0.180000 0.100000
v 5.000000 0.080000 -0.100000
v 5.000000 0.180000 -0.100000
v 5.600000 0.080000 0.100000
v 5.600000 0.180000 0.100000
v 5.600000 0.080000 -0.100000
v 5.600000 0.180000 -0.100000
vn -1.0000 -0.0000 -0.0000
vn -0.0000 -0.0000 -1.0000
vn 1.0000 -0.0000 -0.0000
vn -0.0000 -0.0000 1.0000
vn -0.0000 -1.0000 -0.0000
vn -0.0000 1.0000 -0.0000
vt 0.375000 0.000000
vt 0.625000 0.000000
vt 0.625000 0.250000
vt 0.375000 0.250000
vt 0.625000 0.500000
vt 0.375000 0.500000
vt 0.625000 0.750000
vt 0.375000 0.750000
vt 0.625000 1.000000
vt 0.375000 1.000000
vt 0.125000 0.500000
vt 0.125000 0.750000
vt 0.875000 0.500000
vt 0.875000 0.750000
s 0
usemtl Material
f 85/167/45 86/168/45 88/169/45 87/170/45
f 87/170/46 88/169/46 92/171/46 91/172/46
f 91/172/47 92/171/47 90/173/47 89/174/47
f 89/174/48 90/173/48 86/175/48 85/176/48
f 87/177/49 91/172/49 89/174/49 85/178/49
f 92/171/50 88/179/50 86/180/50 90/173/50
