# Blender 4.1.1
# www.blender.org
mtllib 08_KerrLab.mtl
o Cube
v 0.020000 0.900000 -1.600000
v 0.020000 -0.900000 -1.600000
v 0.020000 0.900000 1.600000
v 0.020000 -0.900000 1.600000
v -0.080000 0.900000 -1.600000
v -0.080000 -0.900000 -1.600000
v -0.080000 0.900000 1.600000
v -0.080000 -0.900000 1.600000
vn -0.0000 1.0000 -0.0000
vn -0.0000 -0.0000 1.0000
vn -1.0000 -0.0000 -0.0000
vn -0.0000 -1.0000 -0.0000
vn 1.0000 -0.0000 -0.0000
vn -0.0000 -0.0000 -1.0000
vt 0.625000 0.500000
vt 0.875000 0.500000
vt 0.875000 0.750000
vt 0.625000 0.750000
vt 0.375000 0.750000
vt 0.625000 1.000000
vt 0.375000 1.000000
vt 0.375000 0.000000
vt 0.625000 0.000000
vt 0.625000 0.250000
vt 0.375000 0.250000
vt 0.125000 0.500000
vt 0.375000 0.500000
vt 0.125000 0.750000
s 0
usemtl Material
f 1/1/1 5/2/1 7/3/1 3/4/1
f 4/5/2 3/4/2 7/6/2 8/7/2
f 8/8/3 7/9/3 5/10/3 6/11/3
f 6/12/4 2/13/4 4/5/4 8/14/4
f 2/13/5 1/1/5 3/4/5 4/5/5
f 6/11/6 5/10/6 1/1/6 2/13/6
o Cube.001
v 0.100000 1.100000 -1.800000
v 0.100000 -1.100000 -1.800000
v 0.100000 1.100000 1.800000
v 0.100000 -1.100000 1.800000
v -0.100000 1.100000 -1.800000
v -0.000000 0.900000 -1.600000
v -0.100000 -1.100000 -1.800000
v -0.000000 -0.900000 -1.600000
v -0.100000 1.100000 1.800000
v -0.000000 0.900000 1.600000
v -0.100000 -1.100000 1.800000
v -0.000000 -0.900000 1.600000
v 0.100000 -0.900000 -1.600000
v 0.100000 0.900000 -1.600000
v 0.100000 -0.900000 1.600000
v 0.100000 0.900000 1.600000
vn -0.0000 1.0000 -0.0000
vn -0.0000 -0.0000 1.0000
vn -1.0000 -0.0000 -0.0000
vn -0.0000 -1.0000 -0.0000
vn 1.0000 -0.0000 -0.0000
vn -0.0000 -0.0000 -1.0000
vt 0.625000 0.500000
vt 0.875000 0.500000
vt 0.875000 0.750000
vt 0.625000 0.750000
vt 0.375000 0.750000
vt 0.625000 1.000000
vt 0.375000 1.000000
vt 0.375000 0.000000
vt 0.625000 0.000000
vt 0.625000 0.250000
vt 0.375000 0.250000
vt 0.125000 0.500000
vt 0.375000 0.500000
vt 0.125000 0.750000
vt 0.397727 0.736111
vt 0.602273 0.736111
vt 0.602273 0.513889
vt 0.397727 0.513889
vt 0.750000 0.500000
vt 0.750000 0.750000
vt 0.375000 0.875000
vt 0.625000 0.875000
vt 0.250000 0.750000
vt 0.250000 0.500000
vt 0.625000 0.375000
vt 0.375000 0.375000
s 0
usemtl Material.001
f 9/15/7 13/16/7 17/17/7 11/18/7
f 12/19/8 11/18/8 17/20/8 19/21/8
f 19/22/9 17/23/9 13/24/9 15/25/9
f 15/26/10 10/27/10 12/19/10 19/28/10
f 23/29/11 12/19/11 10/27/11 9/15/11 11/18/11 24/30/11 22/31/11 21/32/11
f 11/18/11 12/19/11 23/29/11 24/30/11
f 15/25/12 13/24/12 9/15/12 10/27/12
f 18/17/10 14/16/10 22/33/10 24/34/10
f 23/35/12 20/21/12 18/20/12 24/36/12
f 20/22/11 16/25/11 14/24/11 18/23/11
f 16/26/7 20/28/7 23/37/7 21/38/7
f 22/39/8 14/24/8 16/25/8 21/40/8
o Cube.002
v -0.500000 -1.600000 0.500000
v -0.500000 -1.400000 0.500000
v -0.500000 -1.600000 -0.500000
v -0.500000 -1.400000 -0.500000
v 0.500000 -1.600000 0.500000
v 0.500000 -1.400000 0.500000
v 0.500000 -1.600000 -0.500000
v 0.500000 -1.400000 -0.500000
vn -1.0000 -0.0000 -0.0000
vn -0.0000 -0.0000 -1.0000
vn 1.0000 -0.0000 -0.0000
vn -0.0000 -0.0000 1.0000
vn -0.0000 -1.0000 -0.0000
vn -0.0000 1.0000 -0.0000
vt 0.375000 0.000000
vt 0.625000 0.000000
vt 0.625000 0.250000
vt 0.375000 0.250000
vt 0.625000 0.500000
vt 0.375000 0.500000
vt 0.625000 0.750000
vt 0.375000 0.750000
vt 0.625000 1.000000
vt 0.375000 1.000000
vt 0.125000 0.500000
vt 0.125000 0.750000
vt 0.875000 0.500000
vt 0.875000 0.750000
s 0
f 25/41/13 26/42/13 28/43/13 27/44/13
f 27/44/14 28/43/14 32/45/14 31/46/14
f 31/46/15 32/45/15 30/47/15 29/48/15
f 29/48/16 30/47/16 26/49/16 25/50/16
f 27/51/17 31/46/17 29/48/17 25/52/17
f 32/45/18 28/53/18 26/54/18 30/47/18
o Cube.003
v -0.400000 -1.400000 0.200000
v -0.400000 -0.800000 0.200000
v -0.400000 -1.400000 -0.200000
v -0.400000 -0.800000 -0.200000
v 0.000000 -1.400000 0.200000
v 0.000000 -0.800000 0.200000
v 0.000000 -1.400000 -0.200000
v 0.000000 -0.800000 -0.200000
vn -1.0000 -0.0000 -0.0000
vn -0.0000 -0.0000 -1.0000
vn 1.0000 -0.0000 -0.0000
vn -0.0000 -0.0000 1.0000
vn -0.0000 -1.0000 -0.0000
vn -0.0000 1.0000 -0.0000
vt 0.375000 0.000000
vt 0.625000 0.000000
vt 0.625000 0.250000
vt 0.375000 0.250000
vt 0.625000 0.500000
vt 0.375000 0.500000
vt 0.625000 0.750000
vt 0.375000 0.750000
vt 0.625000 1.000000
vt 0.375000 1.000000
vt 0.125000 0.500000
vt 0.125000 0.750000
vt 0.875000 0.500000
vt 0.875000 0.750000
s 0
f 33/55/19 34/56/19 36/57/19 35/58/19
f 35/58/20 36/57/20 40/59/20 39/60/20
f 39/60/21 40/59/21 38/61/21 37/62/21
f 37/62/22 38/61/22 34/63/22 33/64/22
f 35/65/23 39/60/23 37/62/23 33/66/23
f 40/59/24 36/67/24 34/68/24 38/61/24
